<?xml version="1.0" encoding="UTF-8" standalone="no"?>
<svg
   height="89.999992"
   width="643.07831"
   inkscape:version="1.1.1 (3bf5ae0d25, 2021-09-20)"
   sodipodi:docname="default-monochrome-black.svg"
   id="svg19"
   version="1.1"
   class="iconLeftSlogan"
   viewBox="0 0 643.07831 89.999992"
   data-v-423bf9ae=""
   xmlns:inkscape="http://www.inkscape.org/namespaces/inkscape"
   xmlns:sodipodi="http://sodipodi.sourceforge.net/DTD/sodipodi-0.dtd"
   xmlns="http://www.w3.org/2000/svg"
   xmlns:svg="http://www.w3.org/2000/svg"
   xmlns:rdf="http://www.w3.org/1999/02/22-rdf-syntax-ns#"
   xmlns:cc="http://creativecommons.org/ns#"
   xmlns:dc="http://purl.org/dc/elements/1.1/">
  <metadata
     id="metadata846">
    <rdf:RDF>
      <cc:Work
         rdf:about="">
        <dc:format>image/svg+xml</dc:format>
        <dc:type
           rdf:resource="http://purl.org/dc/dcmitype/StillImage" />
      </cc:Work>
    </rdf:RDF>
  </metadata>
  <defs
     id="defs23" />
  <sodipodi:namedview
     inkscape:document-rotation="0"
     inkscape:current-layer="svg19"
     inkscape:window-maximized="1"
     inkscape:window-y="-8"
     inkscape:window-x="-8"
     inkscape:window-height="1027"
     inkscape:window-width="1920"
     inkscape:cy="204.55589"
     inkscape:cx="245.97215"
     inkscape:zoom="0.98994949"
     showgrid="false"
     inkscape:pagecheckerboard="0"
     inkscape:pageopacity="0.0"
     inkscape:pageshadow="2"
     borderopacity="1.0"
     bordercolor="#666666"
     pagecolor="#ffffff"
     id="namedview21" />
  <!---->
  <!---->
  <!---->
  <!---->
  <g
     fill="black"
     stroke="none"
     transform="matrix(1.2601927,0,0,1.2601927,-11.809266,-18.378325)"
     id="09dd080a-310e-49e8-8d74-68072de70633"
     data-v-423bf9ae=""
     style="fill:#2c106a;fill-opacity:1">
    <circle
       id="circle5"
       r="3.888"
       cy="80.595001"
       cx="42.692001"
       style="fill:#2c106a;fill-opacity:1" />
    <path
       inkscape:connector-curvature="0"
       id="path7"
       d="M 47.234,63.9 C 44.979,61.842 43.24,55.321 49.75,52.923 55.957,50.636 63.275,65.044 51.58,68.017 38.977,71.221 33.517,48.878 45.405,40.574 76.531,18.832 41.859,-0.059 45.281,30.74 c 5.776,42.406 6.482,41.893 6.698,47.784 0.15,4.093 -2.425,7.332 -6.77,6.417 -1.409,-0.297 0.298,-1.566 0.229,-1.601 -1.372,-0.686 -3.016,1.147 -4.117,0.915 8.69,4.803 11.756,-1.338 11.507,-5.946 -0.173,-3.197 -5.104,-47.366 -5.104,-48.661 0,-13.264 7.972,-11.663 7.286,-5.489 C 54.324,30.333 40.145,40.573 36.486,48.12 32.827,55.667 33.602,65.695 44.948,69.389 56.186,73.048 66.706,60.241 61.217,53.38 52.911,42.998 37.204,56.124 47.234,63.9 Z M 38.43,27.664 H 21.825 a 1.384,1.384 0 1 1 0,-2.768 H 38.43 a 1.384,1.384 0 1 1 0,2.768 z m 38.745,0 H 63.337 a 1.384,1.384 0 1 1 0,-2.768 h 13.837 a 1.3840001,1.3840001 0 0 1 10e-4,2.768 z M 34.279,40.117 H 14.906 a 1.384,1.384 0 1 1 0,-2.768 h 19.372 a 1.3840001,1.3840001 0 0 1 0.001,2.768 z"
       style="fill:#2c106a;fill-opacity:1" />
    <path
       inkscape:connector-curvature="0"
       id="path9"
       d="M 84.094,40.117 H 55.035 a 1.384,1.384 0 1 1 0,-2.768 h 29.059 a 1.384,1.384 0 1 1 0,2.768 z M 27.36,52.571 H 10.755 a 1.384,1.384 0 1 1 0,-2.768 H 27.36 a 1.384,1.384 0 1 1 0,2.768 z m 60.885,0 H 67.489 a 1.384,1.384 0 1 1 0,-2.768 h 20.756 a 1.384,1.384 0 1 1 0,2.768 z M 30.128,65.025 H 16.29 a 1.384,1.384 0 1 1 0,-2.768 h 13.837 a 1.3840001,1.3840001 0 0 1 0.001,2.768 z m 53.966,0 H 67.489 a 1.384,1.384 0 1 1 0,-2.768 h 16.605 a 1.384,1.384 0 1 1 0,2.768 z M 32.895,77.479 h -9.686 a 1.384,1.384 0 1 1 0,-2.768 h 9.686 a 1.384,1.384 0 1 1 0,2.768 z"
       style="fill:#2c106a;fill-opacity:1" />
    <g
       id="g13"
       style="fill:#2c106a;fill-opacity:1">
      <path
         inkscape:connector-curvature="0"
         id="path11"
         d="M 75.791,77.479 H 60.57 a 1.384,1.384 0 1 1 0,-2.768 h 15.221 a 1.384,1.384 0 1 1 0,2.768 z"
         style="fill:#2c106a;fill-opacity:1" />
    </g>
  </g>
  <!---->
  <text
     id="text850"
     y="79.329651"
     x="98.7033"
     style="font-style:normal;font-variant:normal;font-weight:normal;font-stretch:normal;font-size:64px;line-height:1.25;font-family:Helvetica;-inkscape-font-specification:Helvetica;fill:#2c106a;fill-opacity:1"
     xml:space="preserve"><tspan
       style="font-style:normal;font-variant:normal;font-weight:normal;font-stretch:normal;font-family:Helvetica;-inkscape-font-specification:Helvetica;fill:#2c106a;fill-opacity:1"
       y="79.329651"
       x="98.7033"
       id="tspan848"
       sodipodi:role="line">Atelier voor Muziek</tspan></text>
  <text
     transform="scale(1.5937579,0.62744788)"
     id="text854"
     y="42.147377"
     x="125.5068"
     style="font-style:normal;font-variant:normal;font-weight:300;font-stretch:normal;font-size:42.6667px;line-height:1.25;font-family:Helvetica;-inkscape-font-specification:'Helvetica Light';letter-spacing:0px;fill:#ff9100;fill-opacity:1;stroke-width:1.59375"
     xml:space="preserve"><tspan
       dx="0"
       style="font-style:normal;font-variant:normal;font-weight:300;font-stretch:normal;font-family:Helvetica;-inkscape-font-specification:'Helvetica Light';letter-spacing:0px;word-spacing:0.0159375px;fill:#ff9100;fill-opacity:1;stroke-width:1.59375"
       y="42.147377"
       x="125.5068"
       id="tspan852"
       sodipodi:role="line"><tspan
   id="tspan847"
   style="font-style:normal;font-variant:normal;font-weight:normal;font-stretch:normal;font-family:Helvetica;-inkscape-font-specification:Helvetica;fill:#ff9100;fill-opacity:1">J</tspan>he<tspan
   id="tspan849"
   style="font-style:normal;font-variant:normal;font-weight:normal;font-stretch:normal;font-family:Helvetica;-inkscape-font-specification:Helvetica;fill:#ff9100;fill-opacity:1">M</tspan>el<tspan
   id="tspan851"
   style="font-style:normal;font-variant:normal;font-weight:normal;font-stretch:normal;font-family:Helvetica;-inkscape-font-specification:Helvetica;fill:#ff9100;fill-opacity:1">A</tspan></tspan></text>
</svg>
